<svg width="324" height="37" viewBox="0 0 324 37" fill="none" xmlns="http://www.w3.org/2000/svg">
<path d="M43.8173 6.85483V0.362366H51.5142V6.85783H43.8173V6.85483ZM44.0091 35.4792V9.6951H51.3225V35.4792H44.0091Z" fill="#EF4828"/>
<path d="M73.2083 35.4792V31.809C72.3095 33.0194 71.2279 34.0141 69.9606 34.7931C68.6933 35.5721 67.0994 35.9616 65.1729 35.9616C63.6659 35.9616 62.2068 35.674 60.7956 35.0957C59.3845 34.5175 58.1321 33.6606 57.0446 32.5221C55.954 31.3836 55.0792 29.9874 54.423 28.3366C53.7639 26.6858 53.4373 24.7863 53.4373 22.6351V22.5392C53.4373 20.391 53.7669 18.4915 54.423 16.8377C55.0792 15.1869 55.945 13.7907 57.0206 12.6522C58.0932 11.5137 59.3366 10.6568 60.7477 10.0786C62.1589 9.50035 63.6329 9.21273 65.1729 9.21273C67.1293 9.21273 68.7412 9.59323 70.0085 10.3572C71.2759 11.1212 72.3425 12.0111 73.2083 13.0297V0.362366H80.5187V35.4792H73.2083ZM73.3042 22.5362C73.3042 21.4696 73.1364 20.4929 72.7979 19.6061C72.4623 18.7192 72.0129 17.9612 71.4496 17.3291C70.8894 16.6999 70.2303 16.2145 69.4782 15.876C68.7232 15.5374 67.9143 15.3666 67.0484 15.3666C66.1826 15.3666 65.3736 15.5374 64.6186 15.876C63.8636 16.2145 63.1985 16.6999 62.6232 17.3291C62.045 17.9582 61.5896 18.7103 61.2511 19.5821C60.9155 20.454 60.7447 21.4397 60.7447 22.5362V22.6321C60.7447 23.6987 60.9125 24.6754 61.2511 25.5622C61.5866 26.4491 62.045 27.2071 62.6232 27.8393C63.2015 28.4684 63.8666 28.9538 64.6186 29.2923C65.3706 29.6309 66.1826 29.8017 67.0484 29.8017C67.9143 29.8017 68.7232 29.6339 69.4782 29.2923C70.2303 28.9538 70.8894 28.4684 71.4496 27.8393C72.0099 27.2101 72.4593 26.4521 72.7979 25.5622C73.1364 24.6724 73.3042 23.6987 73.3042 22.6321V22.5362Z" fill="#EF4828"/>
<path d="M107.481 24.2202C107.463 24.4778 107.439 24.7834 107.409 25.134H89.4654C89.8189 26.8028 90.547 28.0611 91.6555 28.909C92.7611 29.7599 94.1333 30.1823 95.7691 30.1823C96.9885 30.1823 98.0791 29.9726 99.0408 29.5562C100.003 29.1397 100.997 28.4656 102.025 27.5368L106.21 31.2399C104.991 32.747 103.517 33.9274 101.785 34.7753C100.053 35.6232 98.0162 36.0486 95.6762 36.0486C93.7528 36.0486 91.9641 35.728 90.3133 35.0869C88.6624 34.4457 87.2333 33.5319 86.0319 32.3455C84.8305 31.159 83.8897 29.7569 83.2186 28.136C82.5445 26.5182 82.2089 24.7145 82.2089 22.7251V22.6293C82.2089 20.8017 82.5205 19.0699 83.1467 17.4341C83.7729 15.7982 84.6447 14.3721 85.7682 13.1527C86.8918 11.9333 88.228 10.9716 89.786 10.2675C91.3409 9.56344 93.0637 9.2099 94.9572 9.2099C97.1054 9.2099 98.9659 9.5934 100.536 10.3634C102.106 11.1334 103.415 12.167 104.458 13.4673C105.5 14.7646 106.27 16.2566 106.768 17.9404C107.265 19.6242 107.514 21.3799 107.514 23.2075V23.3034C107.505 23.6599 107.499 23.9655 107.481 24.2202ZM98.6543 16.5982C97.7225 15.5885 96.4882 15.0822 94.9512 15.0822C93.4142 15.0822 92.1678 15.5795 91.2241 16.5742C90.2773 17.5689 89.6601 18.8992 89.3725 20.568H100.389C100.161 18.9291 99.5861 17.6079 98.6543 16.5982Z" fill="#EF4828"/>
<path d="M124.438 35.4795V32.6901C123.539 33.6848 122.467 34.4788 121.214 35.072C119.965 35.6652 118.44 35.9618 116.645 35.9618C115.426 35.9618 114.278 35.794 113.206 35.4555C112.13 35.1199 111.192 34.6136 110.393 33.9395C109.59 33.2654 108.957 32.4415 108.493 31.4617C108.029 30.485 107.795 29.3525 107.795 28.0702V27.9743C107.795 26.5632 108.053 25.3438 108.565 24.3191C109.077 23.2945 109.79 22.4436 110.704 21.7695C111.618 21.0954 112.708 20.592 113.976 20.2535C115.243 19.9179 116.645 19.7471 118.185 19.7471C119.501 19.7471 120.645 19.843 121.625 20.0348C122.601 20.2265 123.557 20.4842 124.486 20.8047V20.3733C124.486 18.8333 124.022 17.6649 123.09 16.8619C122.158 16.062 120.78 15.6605 118.952 15.6605C117.541 15.6605 116.298 15.7803 115.225 16.02C114.15 16.2597 113.02 16.6043 111.834 17.0537L110.006 11.475C111.417 10.8668 112.891 10.3695 114.431 9.98296C115.971 9.59647 117.829 9.40472 120.01 9.40472C124.019 9.40472 126.937 10.3844 128.764 12.3379C130.592 14.2943 131.506 17.0207 131.506 20.5141V35.4735H124.438V35.4795ZM124.582 25.0861C123.941 24.7985 123.228 24.5648 122.443 24.388C121.658 24.2113 120.816 24.1244 119.917 24.1244C118.344 24.1244 117.11 24.43 116.214 25.0382C115.315 25.6464 114.866 26.5302 114.866 27.6837V27.7796C114.866 28.7743 115.234 29.5443 115.971 30.0895C116.708 30.6348 117.67 30.9075 118.856 30.9075C120.588 30.9075 121.975 30.491 123.018 29.6581C124.061 28.8252 124.582 27.7346 124.582 26.3864V25.0861Z" fill="#EF4828"/>
<path d="M156.955 35.503C156.023 35.7756 154.951 35.9135 153.731 35.9135C152.608 35.9135 151.592 35.7936 150.675 35.5539C149.758 35.3142 148.977 34.8888 148.317 34.2806C147.658 33.6724 147.146 32.8784 146.777 31.8987C146.409 30.922 146.223 29.6786 146.223 28.1716V15.9477H143.143V9.69491H146.223V3.10358H153.537V9.69491H159.598V15.9477H153.537V26.9642C153.537 28.633 154.321 29.4659 155.894 29.4659C157.177 29.4659 158.378 29.1603 159.502 28.5521V34.4214C158.735 34.8678 157.887 35.2304 156.955 35.503Z" fill="#EF4828"/>
<path d="M177.687 35.4792V21.1311C177.687 19.4023 177.304 18.0991 176.534 17.2212C175.764 16.3434 174.673 15.8999 173.262 15.8999C171.851 15.8999 170.736 16.3404 169.919 17.2212C169.101 18.102 168.693 19.4053 168.693 21.1311V35.4792H161.383V0.362366H168.693V13.3803C169.11 12.832 169.568 12.3077 170.065 11.8043C170.563 11.304 171.114 10.8606 171.725 10.4711C172.333 10.0846 173.007 9.77599 173.744 9.55129C174.482 9.32658 175.314 9.21273 176.246 9.21273C179.036 9.21273 181.193 10.0636 182.718 11.7624C184.24 13.4611 185.004 15.8041 185.004 18.7852V35.4762H177.687V35.4792Z" fill="#EF4828"/>
<path d="M211.771 24.2202C211.756 24.4778 211.729 24.7834 211.699 25.134H193.755C194.109 26.8028 194.837 28.0611 195.945 28.909C197.051 29.7599 198.423 30.1823 200.059 30.1823C201.278 30.1823 202.369 29.9726 203.331 29.5562C204.292 29.1397 205.287 28.4656 206.312 27.5368L210.497 31.2399C209.278 32.747 207.804 33.9274 206.072 34.7753C204.34 35.6232 202.303 36.0486 199.963 36.0486C198.04 36.0486 196.251 35.728 194.6 35.0869C192.949 34.4457 191.52 33.5319 190.319 32.3455C189.117 31.159 188.18 29.7569 187.505 28.136C186.831 26.5182 186.496 24.7145 186.496 22.7251V22.6293C186.496 20.8017 186.807 19.0699 187.434 17.4341C188.06 15.7982 188.932 14.3721 190.055 13.1527C191.179 11.9333 192.515 10.9716 194.073 10.2675C195.628 9.56344 197.351 9.2099 199.244 9.2099C201.392 9.2099 203.253 9.5934 204.823 10.3634C206.393 11.1334 207.702 12.167 208.742 13.4673C209.784 14.7646 210.554 16.2566 211.052 17.9404C211.549 19.6242 211.798 21.3799 211.798 23.2075V23.3034C211.795 23.6599 211.786 23.9655 211.771 24.2202ZM202.941 16.5982C202.009 15.5885 200.778 15.0822 199.238 15.0822C197.698 15.0822 196.455 15.5795 195.511 16.5742C194.564 17.5689 193.947 18.8992 193.659 20.568H204.676C204.451 18.9291 203.873 17.6079 202.941 16.5982Z" fill="#EF4828"/>
<path d="M239.214 27.8544C238.507 29.4753 237.531 30.8924 236.281 32.1118C235.032 33.3312 233.555 34.293 231.856 34.9971C230.157 35.7011 228.297 36.0547 226.277 36.0547C224.288 36.0547 222.445 35.7101 220.747 35.021C219.048 34.3319 217.58 33.3852 216.346 32.1838C215.111 30.9823 214.14 29.5712 213.436 27.9503C212.729 26.3324 212.379 24.5917 212.379 22.7312V22.6353C212.379 20.7747 212.732 19.037 213.436 17.4162C214.14 15.7983 215.12 14.3782 216.369 13.1588C217.619 11.9394 219.096 10.9776 220.795 10.2736C222.493 9.56948 224.354 9.21594 226.373 9.21594C228.363 9.21594 230.205 9.56049 231.904 10.2496C233.603 10.9387 235.071 11.8854 236.305 13.0869C237.54 14.2883 238.51 15.7024 239.214 17.3203C239.919 18.9412 240.272 20.6789 240.272 22.5394V22.6353C240.272 24.4959 239.919 26.2336 239.214 27.8544ZM233.055 22.6353C233.055 21.6736 232.893 20.7688 232.572 19.9179C232.252 19.07 231.787 18.315 231.176 17.6558C230.568 16.9997 229.846 16.4784 229.013 16.0919C228.177 15.7084 227.263 15.5137 226.271 15.5137C225.214 15.5137 224.276 15.6994 223.458 16.0679C222.64 16.4365 221.942 16.9428 221.367 17.5839C220.789 18.2251 220.348 18.9711 220.043 19.822C219.737 20.6729 219.584 21.5777 219.584 22.5394V22.6353C219.584 23.597 219.743 24.5048 220.067 25.3527C220.387 26.2036 220.852 26.9556 221.463 27.6148C222.071 28.2739 222.787 28.7922 223.602 29.1787C224.417 29.5652 225.343 29.7569 226.367 29.7569C227.425 29.7569 228.363 29.5712 229.181 29.2027C229.999 28.8342 230.697 28.3278 231.272 27.6867C231.85 27.0455 232.291 26.2995 232.596 25.4486C232.902 24.6007 233.055 23.6929 233.055 22.7312V22.6353Z" fill="#EF4828"/>
<path d="M257.107 16.8612C254.668 16.8612 252.754 17.5983 251.358 19.0753C249.961 20.5494 249.266 22.8444 249.266 25.9543V35.4788H241.953V9.69467H249.266V14.8898C250.003 13.1252 251.013 11.714 252.298 10.6564C253.581 9.59879 255.312 9.11643 257.494 9.2123V16.8612H257.107Z" fill="#EF4828"/>
<path d="M282.483 24.2202C282.468 24.4778 282.441 24.7834 282.411 25.134H264.468C264.822 26.8028 265.55 28.0611 266.658 28.909C267.764 29.7599 269.136 30.1823 270.772 30.1823C271.991 30.1823 273.082 29.9726 274.043 29.5562C275.005 29.1397 276 28.4656 277.024 27.5368L281.21 31.2399C279.991 32.747 278.517 33.9274 276.785 34.7753C275.053 35.6232 273.016 36.0486 270.676 36.0486C268.752 36.0486 266.964 35.728 265.313 35.0869C263.662 34.4457 262.233 33.5319 261.032 32.3455C259.83 31.159 258.892 29.7569 258.218 28.136C257.544 26.5182 257.209 24.7145 257.209 22.7251V22.6293C257.209 20.8017 257.52 19.0699 258.146 17.4341C258.773 15.7982 259.644 14.3721 260.768 13.1527C261.891 11.9333 263.228 10.9716 264.786 10.2675C266.341 9.56344 268.063 9.2099 269.957 9.2099C272.105 9.2099 273.966 9.5934 275.535 10.3634C277.105 11.1334 278.415 12.167 279.454 13.4673C280.497 14.7646 281.267 16.2566 281.764 17.9404C282.262 19.6242 282.51 21.3799 282.51 23.2075V23.3034C282.507 23.6599 282.498 23.9655 282.483 24.2202ZM273.654 16.5982C272.722 15.5885 271.491 15.0822 269.951 15.0822C268.411 15.0822 267.167 15.5795 266.224 16.5742C265.277 17.5689 264.66 18.8992 264.372 20.568H275.389C275.161 18.9291 274.586 17.6079 273.654 16.5982Z" fill="#EF4828"/>
<path d="M316.372 35.4795V21.1313C316.372 19.4026 316.004 18.0993 315.267 17.2215C314.53 16.3436 313.469 15.9002 312.091 15.9002C310.713 15.9002 309.628 16.3406 308.843 17.2215C308.058 18.1023 307.666 19.4056 307.666 21.1313V35.4795H300.352V21.1313C300.352 19.4026 299.984 18.0993 299.247 17.2215C298.51 16.3436 297.449 15.9002 296.071 15.9002C294.693 15.9002 293.608 16.3406 292.823 17.2215C292.038 18.1023 291.646 19.4056 291.646 21.1313V35.4795H284.332V9.69538H291.646V13.3805C292.062 12.8323 292.521 12.3079 293.018 11.8046C293.515 11.3043 294.067 10.8608 294.678 10.4714C295.286 10.0849 295.969 9.77627 296.721 9.55157C297.473 9.32686 298.315 9.21301 299.247 9.21301C300.946 9.21301 302.414 9.56954 303.648 10.2796C304.882 10.9897 305.835 12.0083 306.509 13.3326C307.633 11.9754 308.882 10.9507 310.26 10.2556C311.639 9.56056 313.211 9.21301 314.976 9.21301C317.703 9.21301 319.836 10.016 321.373 11.6188C322.913 13.2217 323.683 15.5796 323.683 18.6896V35.4795H316.372Z" fill="#EF4828"/>
<path d="M16.5922 25.7803C16.5922 27.0896 16.5892 28.4019 16.5922 29.7112C16.5922 30.1276 16.5233 30.5231 16.2357 30.8407C16.0918 30.9965 15.9271 31.1463 15.7473 31.2541C13.5841 32.5784 11.415 33.8877 9.25483 35.2119C8.60169 35.6134 7.97552 35.6014 7.33136 35.2059C5.16821 33.8847 3.00205 32.5694 0.835901 31.2511C0.278634 30.9186 0 30.4242 0 29.7651C0.00299606 27.1196 0.00299606 24.471 0 21.8255C0 21.1574 0.284626 20.6631 0.850882 20.3185C3.00505 19.0092 5.16221 17.6999 7.31339 16.3817C7.97552 15.9772 8.61368 15.9712 9.27581 16.3757C11.433 17.697 13.5931 19.0062 15.7533 20.3215C16.3285 20.672 16.6012 21.1754 16.5952 21.8495C16.5862 23.1618 16.5922 24.471 16.5922 25.7803ZM13.4703 25.7773C13.4703 24.7707 13.4703 23.764 13.4733 22.7573C13.4733 22.6345 13.4493 22.5446 13.3325 22.4757C11.7056 21.49 10.0788 20.5013 8.45489 19.5126C8.33804 19.4407 8.25115 19.4556 8.1433 19.5216C6.52842 20.5043 4.91354 21.487 3.29866 22.4667C3.17583 22.5416 3.12789 22.6225 3.12789 22.7693C3.13388 24.7826 3.13388 26.796 3.12789 28.8123C3.12789 28.9651 3.17882 29.055 3.30765 29.1329C4.91953 30.1066 6.53141 31.0864 8.1373 32.0661C8.26314 32.144 8.35602 32.138 8.48185 32.0631C10.0788 31.0864 11.6786 30.1156 13.2815 29.1479C13.4254 29.061 13.4793 28.9681 13.4793 28.8004C13.4643 27.7907 13.4703 26.784 13.4703 25.7773Z" fill="#EF4828"/>
<path d="M18.384 25.7743C18.384 24.471 18.387 23.1648 18.384 21.8615C18.384 21.445 18.4559 21.0495 18.7435 20.735C18.8814 20.5822 19.0431 20.4383 19.2169 20.3335C21.395 19.0002 23.5792 17.679 25.7603 16.3487C26.3775 15.9742 26.9857 15.9772 27.6029 16.3517C29.784 17.679 31.9682 19.0062 34.1493 20.3335C34.7036 20.669 34.9792 21.1634 34.9762 21.8135C34.9732 24.4651 34.9732 27.1196 34.9762 29.7711C34.9762 30.4242 34.6976 30.9156 34.1463 31.2511C31.9652 32.5784 29.781 33.8997 27.6029 35.2329C26.9737 35.6164 26.3655 35.6044 25.7483 35.2269C23.5732 33.9026 21.395 32.5784 19.2199 31.2571C18.6537 30.9126 18.378 30.4122 18.384 29.7441C18.393 28.4229 18.384 27.0986 18.384 25.7743ZM31.8543 25.7863C31.8543 24.7856 31.8513 23.7849 31.8573 22.7843C31.8573 22.6255 31.8034 22.5326 31.6685 22.4517C30.0656 21.484 28.4658 20.5132 26.8718 19.5365C26.728 19.4467 26.6232 19.4496 26.4794 19.5365C24.8765 20.5162 23.2706 21.49 21.6647 22.4607C21.5478 22.5326 21.5059 22.6165 21.5059 22.7543C21.5089 24.7796 21.5089 26.808 21.5059 28.8333C21.5059 28.9711 21.5538 29.052 21.6707 29.1209C23.2826 30.0947 24.8944 31.0744 26.5003 32.0541C26.6262 32.129 26.719 32.135 26.8449 32.0571C28.4538 31.0744 30.0627 30.0976 31.6745 29.1239C31.8034 29.046 31.8543 28.9591 31.8543 28.8034C31.8483 27.7997 31.8543 26.793 31.8543 25.7863Z" fill="#EF4828"/>
<path d="M25.7842 9.71877C25.7842 11.0221 25.7722 12.3283 25.7902 13.6316C25.7992 14.3417 25.5086 14.845 24.9034 15.2106C22.7372 16.5168 20.5771 17.8321 18.4229 19.1534C17.7877 19.5429 17.1765 19.5309 16.5504 19.1504C14.3752 17.8261 12.1971 16.5048 10.0189 15.1776C9.47366 14.845 9.19203 14.3687 9.19503 13.7185C9.20102 11.052 9.20102 8.38552 9.19503 5.71903C9.19503 5.05989 9.48565 4.58352 10.0339 4.24796C12.1911 2.92969 14.3542 1.62041 16.5114 0.299151C17.1676 -0.102321 17.8027 -0.102321 18.4559 0.299151C20.613 1.61742 22.7762 2.92969 24.9393 4.24197C25.5056 4.58652 25.7932 5.07487 25.7872 5.74599C25.7752 7.07025 25.7842 8.39451 25.7842 9.71877ZM12.3199 9.71278C12.3199 10.7195 12.3229 11.7261 12.3169 12.7328C12.3169 12.8826 12.3619 12.9725 12.4937 13.0504C14.0966 14.0181 15.6965 14.9888 17.2904 15.9656C17.4342 16.0524 17.5361 16.0584 17.6829 15.9686C19.2798 14.9918 20.8797 14.0211 22.4796 13.0534C22.6084 12.9755 22.6623 12.8916 22.6623 12.7388C22.6563 10.7254 22.6563 8.71209 22.6623 6.69874C22.6623 6.54894 22.6174 6.45905 22.4886 6.37816C20.8797 5.40744 19.2768 4.43372 17.6739 3.454C17.5421 3.37311 17.4462 3.37011 17.3114 3.45101C15.7085 4.43072 14.1056 5.40444 12.4967 6.37516C12.3589 6.45905 12.3139 6.55493 12.3169 6.71072C12.3229 7.71141 12.3199 8.71209 12.3199 9.71278Z" fill="#EF4828"/>
</svg>
